<?xml version="1.0" encoding="UTF-8"?>
<svg version="1.1" viewBox="0 0 2048 1616" width="712" height="562" xmlns="http://www.w3.org/2000/svg">
<path transform="translate(38,29)" d="m0 0h1964l10 5 8 7 4 7 1 4v183l-3 8-8 9-7 4-8 2h-1957l-9-3-10-9-5-10-1-4v-180l4-10 5-6z" fill="#100F0F"/>
<path transform="translate(1445,418)" d="m0 0h196l8 4 8 8 4 9 1 5v806l-3 37-5 32-6 27-7 23-13 32-12 23-15 23-12 16-12 14-20 20-8 7-15 12-24 16-18 10-27 13-30 11-29 8-34 7-32 4-20 2-23 1h-56l-33-2-28-3-41-7-31-7-30-8-12-5-8-7-4-8-1-3-1-12v-121l1-44 6-10 8-6 5-2h10l20 6 19 6 32 8 29 5 30 3h51l25-3 22-5 19-6 16-7 14-8 13-10 8-7 7-8 10-14 9-16 8-21 4-18 4-27 1-10 1-774 8-11 8-6z" fill="#100F0F"/>
<path transform="translate(493,417)" d="m0 0 187 1 10 5 7 7 4 8 1 4v1093l-2 12-6 9-8 6-9 4-7 1h-172l-10-2-9-6-7-7-4-9-1-20v-1050l1-34 3-8 7-8 10-5z" fill="#111010"/>
</svg>
